<?xml version="1.0" standalone="no"?>
<!DOCTYPE svg PUBLIC "-//W3C//DTD SVG 20010904//EN"
 "http://www.w3.org/TR/2001/REC-SVG-20010904/DTD/svg10.dtd">
<svg version="1.0" xmlns="http://www.w3.org/2000/svg"
 width="620.000000pt" height="693.000000pt" viewBox="0 0 620.000000 693.000000"
 preserveAspectRatio="xMidYMid meet">

<g transform="translate(0.000000,693.000000) scale(0.100000,-0.100000)"
fill="#000000" stroke="none">
<path d="M3080 5703 c-39 -27 -58 -54 -69 -100 -24 -91 -71 -98 -145 -19 -62
66 -104 79 -163 50 -36 -18 -44 -29 -87 -123 -6 -14 -24 -28 -40 -32 -24 -7
-35 -3 -63 21 -80 71 -159 79 -216 22 -26 -26 -31 -40 -36 -98 -5 -60 -9 -70
-32 -83 -25 -14 -31 -13 -87 12 -134 61 -232 8 -232 -125 0 -57 0 -58 -37 -74
-30 -12 -45 -13 -74 -5 -55 17 -93 13 -130 -12 -45 -30 -71 -81 -67 -135 l3
-42 -46 6 c-104 14 -189 -83 -160 -183 10 -33 10 -33 -27 -33 -140 0 -217 -97
-178 -223 13 -43 12 -49 -2 -66 -10 -11 -43 -23 -81 -29 -132 -23 -179 -129
-110 -249 l31 -54 -22 -55 c-21 -50 -25 -55 -62 -60 -84 -14 -147 -87 -134
-156 6 -32 15 -49 71 -124 13 -19 14 -30 3 -86 -11 -62 -14 -66 -57 -89 -56
-30 -86 -83 -77 -134 8 -42 46 -88 86 -105 31 -13 40 -30 17 -30 -26 0 -100
-58 -124 -96 -59 -99 -2 -205 131 -246 l70 -21 -26 -21 c-44 -35 -68 -86 -68
-141 0 -66 25 -102 95 -140 31 -16 57 -34 57 -40 1 -5 -23 -24 -52 -40 -45
-25 -58 -39 -74 -77 -19 -45 -19 -48 -2 -93 19 -48 43 -69 104 -91 26 -9 36
-18 34 -31 -13 -95 -13 -121 1 -149 20 -40 45 -59 92 -74 73 -23 73 -23 62
-83 -9 -48 -7 -60 13 -101 27 -56 63 -77 145 -85 l60 -6 0 -82 c0 -80 1 -83
35 -118 37 -38 81 -55 146 -55 l41 0 6 -55 c7 -67 32 -105 87 -130 35 -16 47
-17 95 -6 72 16 90 6 99 -56 9 -66 38 -110 89 -133 53 -25 65 -25 134 0 55 19
58 19 92 2 33 -16 36 -21 41 -72 3 -30 11 -65 18 -78 21 -36 71 -62 123 -62
42 0 53 5 98 46 46 42 55 46 86 40 30 -6 36 -12 46 -49 17 -64 36 -95 69 -112
63 -33 150 -10 197 51 17 24 33 34 52 34 38 0 46 -8 77 -75 47 -98 119 -129
203 -86 26 14 45 34 62 68 34 69 48 83 81 83 20 0 37 -9 55 -30 84 -101 225
-73 262 52 21 70 76 77 137 17 50 -49 100 -60 154 -32 39 20 80 89 80 136 0
37 40 77 78 77 16 0 47 -7 68 -16 108 -45 214 25 214 140 0 51 36 73 89 57 56
-16 102 -14 138 9 38 23 53 48 68 115 l11 50 65 5 c76 6 115 27 135 75 18 44
18 71 -2 129 -22 63 -13 72 75 67 65 -2 70 -1 104 29 44 39 54 81 37 158 -11
51 -11 57 6 69 10 7 31 13 46 13 39 0 81 23 103 57 20 30 26 109 12 153 -8 24
-5 26 39 38 114 31 141 134 59 229 l-35 41 35 6 c77 15 127 96 104 167 -7 19
-29 53 -51 75 -24 26 -39 49 -36 60 2 12 30 32 72 53 59 29 71 40 88 79 32 71
5 142 -67 176 -35 17 -35 18 -35 80 0 61 1 63 38 87 42 27 69 88 59 131 -10
38 -53 86 -98 109 -52 26 -51 53 5 119 49 58 61 95 46 151 -13 46 -55 81 -122
99 -27 7 -48 18 -48 25 0 7 -9 33 -20 58 l-20 45 30 64 c36 75 37 97 9 155
-25 51 -63 75 -134 83 -46 5 -52 8 -69 43 -17 36 -17 41 -2 87 21 65 20 108
-4 148 -31 50 -75 72 -146 72 -79 0 -87 9 -72 82 10 49 9 59 -8 88 -31 54 -65
73 -131 74 l-58 1 -2 53 c-2 68 -36 116 -94 133 -35 11 -46 10 -89 -8 l-48
-20 -39 21 c-36 21 -38 24 -44 83 -7 70 -26 105 -72 133 -43 27 -95 25 -151
-5 -45 -24 -48 -24 -86 -9 -41 17 -42 19 -65 118 -8 35 -54 83 -89 92 -51 12
-98 -5 -143 -54 l-42 -45 -38 14 c-32 12 -41 22 -53 59 -8 25 -19 52 -25 61
-30 47 -108 63 -165 34 -15 -8 -42 -31 -58 -51 -28 -33 -34 -36 -66 -30 -37 7
-56 31 -70 90 -4 16 -21 42 -38 58 -25 23 -39 28 -82 28 -32 0 -61 -6 -76 -17z
m388 -397 c22 -20 24 -20 36 -3 13 17 42 22 70 11 24 -9 19 -47 -9 -78 -30
-32 -81 -35 -118 -6 -30 24 -43 25 -54 6 -11 -19 -77 -6 -81 15 -4 19 34 68
61 78 29 11 69 2 95 -23z m-91 -119 c6 -7 31 -66 54 -132 24 -66 45 -112 47
-103 2 10 11 63 21 120 l17 103 55 -2 c32 -2 58 -8 64 -17 8 -10 0 -76 -24
-226 l-35 -213 -61 6 c-33 3 -68 9 -77 12 -10 4 -34 54 -62 128 -24 67 -47
115 -49 107 -3 -8 -11 -58 -17 -110 -7 -52 -16 -99 -20 -104 -9 -9 -98 1 -119
13 -10 6 -6 50 19 207 17 109 35 208 40 220 8 20 12 20 72 12 34 -5 68 -15 75
-21z m-330 -187 c45 -113 82 -210 83 -217 0 -14 -80 -28 -114 -19 -19 5 -29
17 -37 47 l-12 40 -66 -3 -66 -3 -11 -45 -11 -45 -62 -9 c-42 -5 -67 -4 -74 3
-7 7 5 65 43 198 29 103 57 202 62 220 10 37 24 41 118 39 l64 -1 83 -205z
m-441 150 c31 -66 30 -67 -36 -86 -33 -9 -60 -22 -60 -28 0 -7 20 -80 45 -162
39 -131 42 -150 29 -161 -16 -12 -112 -28 -120 -20 -3 2 -25 73 -49 157 -25
85 -46 155 -48 156 -2 2 -27 -3 -57 -11 -30 -8 -58 -15 -62 -15 -8 0 -30 79
-27 95 2 11 335 105 359 102 8 -1 20 -13 26 -27z m1356 -62 c124 -38 138 -44
138 -64 0 -18 -14 -63 -26 -82 -1 -2 -41 8 -90 22 -48 14 -91 23 -95 18 -4 -4
-10 -17 -13 -29 -6 -20 -1 -24 51 -39 79 -22 88 -32 73 -78 -6 -20 -15 -38
-19 -40 -4 -3 -38 4 -75 15 -72 22 -84 19 -88 -21 -3 -22 4 -26 76 -47 43 -12
81 -25 84 -28 5 -5 -14 -95 -22 -103 -6 -5 -285 80 -301 92 -12 9 -3 42 62
219 53 144 81 207 91 207 8 0 77 -19 154 -42z m-1819 -156 c17 -9 32 -22 34
-27 1 -6 -17 -23 -41 -38 -35 -22 -52 -27 -78 -22 -42 8 -88 -24 -88 -61 0
-31 13 -31 105 6 42 17 91 30 111 30 118 0 181 -109 118 -205 -77 -119 -264
-165 -332 -82 -10 12 -4 20 36 46 38 24 55 29 83 25 28 -5 41 -1 67 21 33 28
44 75 18 75 -8 0 -48 -13 -89 -30 -126 -50 -202 -38 -242 40 -30 59 -15 118
47 177 72 68 179 88 251 45z m2233 -49 c114 -79 144 -123 144 -208 0 -64 -38
-143 -88 -185 -67 -56 -177 -72 -247 -38 -48 24 -195 124 -195 133 0 6 37 58
83 116 45 58 107 138 137 177 30 39 58 71 62 72 4 0 51 -30 104 -67z m-1068
-233 c116 -12 172 -24 274 -56 136 -42 360 -159 341 -178 -4 -4 -1 -4 8 -1 16
6 157 -102 252 -194 70 -67 190 -223 247 -320 51 -88 114 -247 148 -371 23
-86 25 -113 26 -280 0 -202 -12 -277 -75 -465 -142 -424 -531 -793 -964 -913
-189 -53 -219 -57 -415 -57 -266 0 -415 33 -635 140 -170 82 -286 164 -411
289 -182 183 -265 316 -349 561 -60 177 -82 448 -50 636 39 240 144 466 305
664 169 207 444 406 600 434 36 7 94 27 130 45 126 63 348 89 568 66z m-1486
-127 c117 -53 215 -98 217 -100 7 -5 -71 -82 -90 -88 -9 -3 -33 4 -54 16 l-37
22 -45 -45 -45 -45 23 -42 24 -42 -47 -44 c-26 -25 -50 -45 -55 -45 -4 0 -61
91 -125 203 l-117 202 52 53 c28 28 59 52 69 52 9 0 113 -44 230 -97z m2954
10 c30 -26 54 -53 54 -61 0 -16 -212 -422 -220 -422 -3 0 -27 20 -55 44 l-49
43 26 40 27 40 -32 30 c-62 57 -61 57 -107 28 l-42 -27 -47 40 c-25 21 -47 45
-48 53 -2 9 74 54 215 126 119 62 218 112 220 113 2 0 28 -21 58 -47z m284
-133 c24 -44 14 -57 -84 -106 -52 -27 -98 -45 -102 -42 -9 9 45 91 95 146 34
37 43 42 60 32 11 -6 25 -19 31 -30z m-3573 -175 c8 -3 4 -18 -13 -49 -30 -54
-40 -61 -77 -57 -33 3 -87 -46 -87 -81 0 -83 149 -161 216 -113 46 31 50 84
12 136 -9 13 -6 25 13 60 30 54 52 59 90 23 60 -57 69 -159 21 -236 -76 -122
-210 -155 -348 -87 -85 42 -124 93 -132 168 -15 158 148 284 305 236z m3506
-39 c75 -31 137 -145 118 -214 -11 -36 -42 -81 -56 -82 -5 0 -23 20 -38 44
-24 39 -26 47 -15 65 10 17 9 25 -8 48 -12 15 -29 30 -39 31 -34 7 -37 -13
-10 -83 40 -107 31 -158 -35 -203 -76 -52 -178 -8 -232 98 -34 65 -36 120 -7
166 26 43 42 43 73 -2 18 -27 23 -44 19 -72 -6 -46 26 -92 63 -92 30 0 30 9
-2 101 -37 105 -27 149 41 191 36 21 83 23 128 4z m-208 -478 c33 -15 35 -60
3 -82 l-22 -16 27 0 c28 0 37 -14 15 -22 -7 -3 -32 -6 -55 -7 -36 -1 -43 1
-43 17 0 10 14 28 30 40 17 13 30 29 30 37 0 17 -16 20 -25 5 -9 -15 -35 -12
-35 5 0 13 25 34 42 35 4 0 19 -5 33 -12z m417 -21 c16 -25 8 -76 -14 -91 -49
-35 -108 -3 -108 58 0 28 6 36 32 49 33 16 74 9 90 -16z m-4142 -22 l0 -45 40
0 c29 0 40 -4 40 -15 0 -12 -13 -15 -55 -15 l-55 0 0 60 c0 47 3 60 15 60 11
0 15 -12 15 -45z m220 36 c0 -5 -11 -12 -25 -15 -22 -6 -25 -12 -25 -51 0 -33
-4 -45 -15 -45 -11 0 -15 12 -15 50 0 47 -2 50 -26 50 -14 0 -23 4 -19 10 8
12 125 13 125 1z m268 -3 c13 -13 16 -67 4 -84 -13 -20 -52 -35 -72 -29 -28 9
-25 25 4 25 14 0 27 4 30 9 4 5 -3 7 -13 4 -28 -7 -56 38 -41 66 12 24 68 29
88 9z m3350 -50 c-2 -50 -6 -63 -20 -66 -16 -3 -18 5 -18 62 0 60 2 66 20 66
19 0 21 -5 18 -62z m126 56 c25 -10 19 -50 -11 -73 l-28 -20 33 -1 c22 0 32
-5 32 -15 0 -12 -12 -15 -56 -13 -30 1 -58 6 -60 10 -3 5 13 25 36 45 44 39
39 57 -11 43 -28 -8 -40 5 -22 23 8 9 66 9 87 1z m-3706 -96 c-6 -18 -28 -21
-28 -4 0 9 7 16 16 16 9 0 14 -5 12 -12z m20 -74 c12 -4 22 -11 22 -18 0 -14
-92 -16 -102 -1 -5 6 -8 6 -8 -2 0 -7 -12 -13 -26 -13 -14 0 -23 -4 -19 -10 5
-9 -15 -15 -37 -11 -5 0 -8 -6 -8 -14 0 -8 -6 -15 -13 -15 -15 0 -68 -62 -79
-92 -4 -11 -12 -17 -16 -14 -5 3 -8 -5 -8 -17 1 -16 -6 -23 -23 -25 -21 -3
-23 -1 -17 25 33 133 207 241 334 207z m3746 -35 c-4 -7 -12 -6 -69 7 -25 5
-27 7 -11 13 20 8 87 -9 80 -20z m-3636 -11 c43 -25 108 -95 98 -105 -3 -3 2
-12 12 -20 11 -9 11 -12 2 -7 -12 6 -13 4 -2 -7 6 -7 12 -19 12 -26 0 -23 -17
-14 -30 16 -19 47 -97 119 -136 127 -36 7 -41 13 -22 32 16 16 22 15 66 -10z
m3760 -41 c41 -28 82 -89 82 -122 0 -34 -16 -24 -24 15 -3 18 -10 29 -16 25
-5 -3 -10 -2 -10 3 0 5 -29 30 -65 54 -35 25 -61 48 -58 52 11 10 54 -2 91
-27z m-335 17 c3 -4 -16 -24 -44 -45 -27 -22 -49 -47 -49 -57 0 -15 -2 -15
-10 -2 -8 13 -10 12 -10 -2 0 -23 -39 -63 -50 -51 -9 8 20 72 50 110 32 41 93
67 113 47z m-3528 -22 c-3 -3 -11 0 -18 7 -9 10 -8 11 6 5 10 -3 15 -9 12 -12z
m3793 -68 c-4 -3 -12 5 -18 18 -12 22 -12 22 6 6 10 -10 15 -20 12 -24z
m-3783 12 c34 -15 46 -38 25 -51 -5 -3 -20 1 -32 9 -28 20 -82 21 -98 1 -7 -8
-18 -15 -26 -15 -20 0 -27 19 -13 37 29 34 89 42 144 19z m3713 -26 c85 -52
95 -163 18 -214 -56 -36 -152 -8 -144 43 l3 23 27 -21 c38 -30 71 -27 102 10
33 39 33 61 -3 101 -25 28 -35 32 -72 32 -24 -1 -56 -5 -71 -9 -39 -10 -36 10
5 35 41 25 93 25 135 0z m-3523 -101 c-6 -9 -11 -7 -22 6 -7 11 -13 26 -13 34
0 12 5 11 21 -6 13 -13 18 -26 14 -34z m-259 16 c18 -27 12 -47 -8 -27 -20 20
-55 14 -61 -9 -3 -11 -3 -27 0 -35 6 -16 39 -19 48 -3 4 6 12 8 19 6 15 -6 60
31 75 61 10 18 15 20 31 12 15 -8 20 -21 20 -52 l0 -41 -37 6 c-21 3 -47 1
-58 -3 -19 -8 -19 -9 2 -9 29 -1 53 -27 53 -56 0 -27 -24 -55 -47 -55 -14 0
-14 2 1 19 10 11 16 28 14 38 -3 18 -11 20 -86 22 -40 1 -82 40 -82 76 0 33
42 75 74 75 16 0 32 -9 42 -25z m204 -8 c0 -30 -14 -57 -31 -57 -4 0 -10 16
-14 36 -4 26 -2 39 7 45 26 17 38 9 38 -24z m3525 17 c25 -16 33 -48 15 -59
-5 -3 -18 3 -30 15 -40 40 -100 13 -100 -45 0 -50 8 -64 51 -85 46 -24 75 -25
124 -4 20 8 39 13 42 10 12 -12 -9 -38 -44 -53 -97 -40 -206 22 -220 125 -5
38 -2 45 30 77 40 40 89 47 132 19z m-3939 -30 c-5 -19 -10 -24 -17 -17 -8 8
-7 18 1 33 15 28 24 19 16 -16z m56 14 c2 -13 1 -36 -1 -51 -3 -23 -7 -27 -25
-21 -29 9 -29 7 -10 53 18 46 31 52 36 19z m3631 2 c2 -10 2 -30 0 -44 -4 -21
-11 -26 -34 -26 -26 0 -29 4 -29 30 0 17 5 37 12 43 18 20 45 18 51 -3z m514
-6 c20 -30 9 -57 -26 -62 -19 -3 -21 1 -21 42 0 54 19 62 47 20z m-451 1 c9
-22 -4 -65 -22 -72 -25 -10 -34 10 -23 50 10 38 35 50 45 22z m388 -1 c11 -29
6 -62 -11 -68 -21 -8 -33 10 -33 52 0 25 4 32 19 32 10 0 22 -7 25 -16z
m-3664 -117 c-12 -62 -59 -123 -85 -113 -8 3 -14 2 -14 -2 4 -24 -6 -35 -47
-53 -61 -28 -122 -26 -185 4 -62 29 -49 45 18 22 63 -22 114 -13 179 30 40 26
59 48 83 96 17 34 31 71 31 83 0 19 1 19 16 4 14 -13 14 -23 4 -71z m3180 14
c0 -11 5 -23 11 -26 6 -4 8 -14 4 -23 -3 -9 -3 -13 1 -9 4 3 23 -6 43 -22 20
-15 50 -34 68 -42 24 -10 29 -16 21 -26 -12 -15 -52 -18 -43 -3 3 5 0 8 -7 5
-7 -2 -24 5 -37 16 -21 17 -23 22 -10 31 12 8 11 9 -2 5 -20 -7 -53 26 -68 66
-15 38 -14 47 4 47 8 0 15 -9 15 -19z m545 -23 c-13 -56 -48 -107 -84 -121
-54 -22 -97 -2 -51 23 11 6 20 8 20 6 0 -10 61 60 80 92 11 17 25 32 31 32 7
0 8 -11 4 -32z m-4132 -69 c25 -22 36 -39 29 -43 -6 -4 -20 2 -32 14 -11 11
-23 20 -27 20 -13 0 -53 65 -53 84 0 15 5 13 22 -10 12 -16 40 -45 61 -65z
m3767 -87 c0 -18 125 -19 167 -1 37 15 54 6 31 -18 -26 -25 -149 -30 -198 -8
-22 10 -37 22 -34 26 7 11 34 12 34 1z m-3719 -123 c22 -22 21 -67 -2 -96 -16
-19 -79 -17 -79 2 0 9 9 15 24 15 14 0 27 4 30 9 4 5 -3 7 -13 4 -25 -6 -61
14 -61 34 0 25 30 53 57 53 12 0 32 -9 44 -21z m150 11 c24 -14 26 -68 2 -77
-14 -5 -13 -8 5 -14 41 -15 23 -29 -38 -29 -33 0 -60 4 -60 9 0 10 24 31 54
46 25 13 28 38 4 43 -10 2 -18 -1 -18 -7 0 -15 -27 -14 -36 1 -9 13 22 38 49
38 10 0 27 -5 38 -10z m173 1 c3 -5 -4 -12 -17 -15 -21 -6 -20 -7 11 -21 63
-28 26 -98 -42 -81 -28 7 -42 41 -32 79 8 33 67 60 80 38z m3236 -40 c0 -27 3
-56 6 -65 4 -12 0 -16 -15 -16 -18 0 -21 6 -21 45 0 25 -4 45 -10 45 -5 0 -10
6 -10 14 0 13 13 20 43 25 4 0 7 -21 7 -48z m128 26 c28 -30 21 -81 -14 -104
-22 -14 -26 -14 -49 1 -34 22 -32 33 5 28 17 -2 30 0 30 6 0 5 -13 12 -30 16
-34 6 -39 29 -13 58 22 24 45 23 71 -5z m119 17 c17 -5 24 -16 29 -50 8 -57
-6 -76 -55 -72 -23 2 -37 9 -39 19 -2 12 4 15 26 11 17 -2 33 1 37 9 6 9 3 11
-9 6 -44 -17 -79 49 -38 72 20 12 21 12 49 5z m165 -6 c24 -20 32 -83 13 -102
-19 -19 -76 -21 -93 -4 -20 20 -14 75 10 98 25 23 47 25 70 8z m-3424 -375
c33 -54 65 -115 72 -136 33 -103 -58 -217 -175 -217 -72 0 -122 35 -174 122
l-22 37 -53 -29 c-29 -17 -57 -30 -63 -30 -19 0 -76 102 -67 118 10 14 392
230 411 231 6 1 38 -43 71 -96z m3041 6 c17 -6 31 -13 31 -16 0 -2 -17 -24
-37 -49 -29 -34 -44 -44 -67 -44 -37 0 -86 -44 -86 -77 0 -41 28 -38 90 10 81
63 118 80 171 81 77 0 139 -60 139 -135 0 -79 -83 -189 -174 -230 -63 -29
-166 -22 -166 12 0 5 18 29 40 53 31 33 45 42 64 39 31 -6 96 57 96 93 0 43
-26 39 -99 -15 -109 -81 -169 -98 -232 -66 -63 33 -88 128 -53 198 64 123 178
182 283 146z m-2728 -409 c27 -36 54 -81 60 -102 24 -76 -14 -157 -89 -190
-39 -18 -53 -19 -87 -10 -22 6 -41 9 -43 7 -2 -2 -16 -45 -31 -96 -16 -51 -32
-94 -37 -96 -9 -2 -85 90 -95 116 -3 9 7 54 22 100 39 114 29 127 -51 66 -32
-25 -63 -45 -69 -45 -13 0 -93 100 -89 110 2 4 89 71 193 148 l190 141 38 -42
c21 -23 60 -71 88 -107z m2364 29 c19 -17 35 -36 35 -43 -1 -6 -23 -29 -50
-51 l-48 -39 126 -134 127 -134 -45 -39 c-25 -22 -52 -41 -61 -44 -15 -5 -106
81 -214 203 -20 23 -42 42 -47 42 -6 0 -28 -16 -49 -35 -22 -19 -47 -35 -57
-35 -18 0 -90 66 -81 74 39 37 315 266 320 266 5 0 24 -14 44 -31z m-2060
-303 c70 -32 109 -68 139 -128 87 -174 -56 -375 -251 -355 -105 11 -215 99
-249 199 -27 82 -6 157 65 231 82 87 180 104 296 53z m1681 -31 c37 -15 104
-72 104 -89 0 -11 -85 -46 -113 -46 -9 0 -32 9 -52 21 -71 42 -155 -8 -155
-92 0 -46 30 -111 62 -133 55 -39 137 -5 160 65 13 39 20 45 70 65 62 24 73
21 83 -17 17 -70 -46 -168 -139 -217 -69 -35 -190 -38 -251 -5 -155 83 -192
281 -73 388 85 77 205 101 304 60z m-1277 -95 c136 -36 184 -61 228 -118 90
-118 57 -279 -71 -344 -66 -34 -136 -34 -270 0 -65 17 -122 34 -127 39 -8 9
112 453 123 453 2 0 54 -14 117 -30z m485 -56 c13 -13 16 -42 16 -160 0 -141
1 -146 25 -169 30 -31 64 -32 100 -3 l27 21 -3 161 -4 161 72 3 c61 2 72 0 77
-15 3 -10 6 -90 8 -179 3 -160 3 -161 -24 -201 -37 -56 -103 -87 -188 -87 -79
0 -130 16 -176 57 -56 48 -61 67 -68 249 l-7 167 63 4 c35 2 64 4 65 5 1 1 9
-5 17 -14z"/>
<path d="M2871 5010 c-6 -28 -11 -53 -11 -55 0 -3 16 -5 36 -5 25 0 34 4 30
13 -3 6 -11 31 -18 55 -7 23 -15 42 -19 42 -4 0 -12 -23 -18 -50z"/>
<path d="M4239 4693 l-73 -96 23 -18 c13 -11 39 -19 60 -19 101 0 182 131 119
190 -49 47 -50 46 -129 -57z"/>
<path d="M3104 4378 c-66 -70 -103 -129 -124 -197 -39 -124 -21 -213 63 -324
30 -40 65 -89 78 -109 l25 -37 49 65 c93 121 124 174 135 231 15 68 1 155 -34
228 -25 49 -131 185 -145 185 -4 0 -25 -19 -47 -42z m64 -298 c3 -37 -1 -72
-9 -92 l-13 -33 -12 40 c-16 52 -17 94 -3 134 16 46 32 25 37 -49z"/>
<path d="M2843 4205 c-18 -25 -19 -25 -51 -10 -17 9 -41 14 -52 10 -19 -6 -19
-8 -5 -28 8 -12 15 -29 15 -38 0 -10 14 -20 38 -27 21 -7 49 -23 62 -37 l24
-26 19 63 c34 114 34 118 -1 118 -21 0 -36 -8 -49 -25z"/>
<path d="M3377 4223 c-3 -5 7 -45 23 -90 l27 -82 22 23 c12 13 39 28 59 34 28
8 41 20 51 44 8 18 16 36 19 41 6 11 -57 8 -79 -4 -17 -8 -24 -6 -40 15 -20
25 -71 37 -82 19z"/>
<path d="M2502 3903 c3 -99 8 -126 28 -166 41 -81 84 -123 173 -167 77 -38
120 -49 261 -67 33 -5 61 -13 63 -19 2 -5 -23 -21 -54 -34 -32 -13 -76 -36
-97 -52 -47 -33 -53 -34 -61 -8 -13 40 -118 130 -194 168 -72 34 -83 37 -191
40 -63 2 -120 8 -126 13 -24 19 -22 60 2 84 27 27 31 63 9 104 -31 61 -137 68
-187 11 -34 -37 -38 -98 -10 -123 35 -32 72 -14 72 35 0 24 4 28 28 28 l27 0
0 -118 c0 -110 2 -121 30 -175 37 -74 124 -155 211 -198 54 -27 81 -33 150
-37 94 -5 93 -4 58 -76 -8 -16 -14 -35 -14 -43 0 -18 -3 -17 -42 20 -33 31
-94 57 -134 57 -10 0 -30 12 -45 26 -51 48 -140 50 -190 3 -27 -25 -30 -34
-25 -61 10 -49 54 -106 118 -151 32 -22 56 -43 53 -45 -2 -2 -36 3 -75 13
-140 34 -241 1 -282 -92 -51 -116 33 -248 157 -247 80 1 145 53 145 117 0 46
-43 62 -75 27 -10 -11 -31 -20 -46 -20 -57 0 -81 65 -34 96 23 15 28 14 87 -9
129 -52 225 -56 336 -15 58 22 67 19 77 -24 6 -23 4 -28 -12 -28 -31 0 -110
-56 -138 -98 -47 -71 -69 -211 -49 -312 l7 -32 81 7 c170 13 263 52 347 143
l50 55 38 -12 c49 -14 193 -14 242 0 38 12 38 12 84 -38 89 -100 183 -139 350
-145 l90 -3 0 120 c0 100 -4 128 -21 166 -32 68 -78 115 -134 135 -52 19 -61
35 -37 68 13 17 17 17 96 -8 121 -38 244 -30 333 23 33 20 40 21 65 9 20 -9
29 -22 31 -43 6 -53 -59 -75 -98 -33 -20 21 -22 22 -48 6 -56 -34 -27 -113 53
-144 41 -15 54 -16 93 -5 62 16 96 43 121 94 56 115 -18 242 -148 255 -28 2
-83 -3 -125 -13 -42 -9 -81 -15 -87 -13 -6 2 10 18 36 37 121 87 155 165 95
221 -50 47 -132 45 -181 -4 -17 -16 -39 -25 -76 -28 -34 -3 -67 -15 -93 -32
-22 -14 -43 -26 -47 -25 -7 1 -32 73 -33 92 0 4 26 7 58 7 118 0 242 59 332
157 82 90 111 181 90 285 -9 46 -9 63 1 74 19 23 38 16 47 -18 15 -60 65 -63
86 -5 20 54 -41 127 -107 127 -36 0 -81 -23 -101 -52 -22 -31 -20 -97 4 -128
11 -14 20 -33 20 -42 0 -16 -12 -18 -104 -18 -125 0 -204 -21 -292 -78 -56
-37 -120 -98 -141 -137 -10 -16 -14 -15 -56 14 -25 17 -71 41 -102 53 -88 33
-77 43 61 59 167 18 298 83 362 179 40 58 51 102 59 229 l6 104 -69 -8 c-99
-10 -229 -51 -299 -92 -91 -55 -187 -157 -228 -245 -20 -40 -38 -91 -42 -113
-17 -108 -28 -113 -45 -19 -36 189 -195 364 -388 428 -66 22 -183 45 -231 46
-11 0 -13 -22 -9 -117z m275 -108 c63 -32 147 -118 120 -123 -41 -8 -192 82
-218 129 -8 17 -6 19 19 19 15 0 51 -11 79 -25z m853 16 c0 -21 -100 -100
-153 -120 -57 -21 -87 -26 -87 -15 0 22 73 89 124 114 59 29 116 39 116 21z
m-1008 -398 c48 -26 100 -73 81 -73 -6 0 -43 11 -81 24 -72 24 -132 59 -132
78 0 16 80 -1 132 -29z m1198 28 c0 -18 -79 -59 -159 -84 l-83 -25 28 30 c34
35 88 65 141 77 51 12 73 13 73 2z m-486 -70 c213 -105 291 -388 164 -595 -62
-101 -161 -167 -285 -188 -65 -11 -82 -10 -150 7 -266 66 -395 351 -271 598
97 194 345 275 542 178z m-894 -226 c13 -14 34 -25 47 -25 35 0 78 -25 103
-60 19 -26 20 -32 7 -45 -13 -13 -24 -10 -89 23 -128 66 -157 88 -150 114 7
27 54 23 82 -7z m1510 10 c7 -9 11 -17 9 -18 -2 -1 -23 -17 -46 -35 -23 -17
-46 -32 -52 -32 -6 0 -36 -12 -68 -27 -83 -38 -126 -53 -133 -46 -3 3 1 8 8
10 6 3 10 9 7 14 -18 29 95 114 137 104 17 -4 30 1 48 19 27 29 71 34 90 11z
m50 -220 c-7 -8 -20 -15 -29 -15 -11 1 -8 5 9 15 32 18 35 18 20 0z m-89 -18
c-6 -8 -8 -17 -4 -21 4 -4 0 -4 -9 -1 -14 5 -15 10 -5 21 16 17 33 18 18 1z
m-1102 -291 l32 -33 -23 -15 c-40 -25 -148 -68 -148 -58 0 31 77 140 99 140 4
0 22 -15 40 -34z m764 -5 c27 -24 64 -97 54 -107 -4 -4 -138 54 -153 67 -13
10 -11 16 12 41 35 35 45 35 87 -1z"/>
<path d="M3095 3324 c-106 -27 -195 -97 -237 -189 -31 -67 -31 -198 -1 -266
56 -125 199 -211 327 -195 70 8 168 58 211 108 72 85 97 232 58 342 -40 110
-157 195 -275 202 -35 1 -72 1 -83 -2z m89 -108 c42 -18 113 -80 132 -117 24
-47 18 -106 -12 -134 -35 -32 -59 -33 -49 -2 24 74 9 141 -39 173 -25 16 -28
16 -47 -2 -19 -17 -21 -18 -30 -1 -15 26 -34 21 -69 -19 -29 -33 -31 -42 -28
-88 3 -28 8 -59 12 -68 12 -27 -26 -23 -52 5 -64 68 -15 184 103 245 49 26 39
25 79 8z m-6 -218 c12 -32 12 -40 -5 -79 l-20 -44 -16 32 c-19 37 -22 85 -6
114 14 28 31 19 47 -23z m-131 -109 c15 -5 45 -27 66 -47 l37 -36 38 36 c48
46 72 58 120 58 49 0 55 -6 36 -41 -12 -24 -21 -29 -53 -29 -27 0 -49 -8 -76
-30 -21 -17 -50 -30 -65 -30 -15 0 -44 13 -65 30 -27 21 -49 30 -75 30 -30 0
-39 5 -48 25 -7 14 -12 30 -12 35 0 13 62 13 97 -1z"/>
<path d="M4197 3433 c-4 -3 -7 -28 -7 -54 0 -47 -1 -48 -38 -59 -22 -5 -47
-18 -56 -29 -16 -18 -16 -20 0 -36 12 -12 26 -15 51 -10 27 5 33 3 35 -12 0
-10 2 -22 3 -28 2 -5 3 -21 4 -34 1 -21 5 -23 34 -18 25 4 129 70 176 113 6 5
-173 174 -185 174 -6 0 -14 -3 -17 -7z"/>
<path d="M2039 3415 c-14 -7 -38 -32 -54 -55 -16 -23 -41 -50 -57 -61 -37 -26
-36 -54 1 -67 16 -6 43 -28 61 -50 35 -44 77 -60 84 -33 2 9 8 32 12 51 8 40
18 50 55 50 28 0 39 19 39 69 0 18 -4 22 -17 16 -10 -4 -31 -10 -47 -13 l-29
-5 5 57 c5 62 -3 68 -53 41z"/>
<path d="M3123 2443 c-34 -7 -73 -59 -73 -99 0 -22 -5 -34 -14 -34 -8 0 -28
-16 -45 -35 -55 -64 -37 -149 45 -211 33 -26 46 -29 108 -29 62 0 76 4 116 30
84 57 122 174 85 263 -39 91 -122 134 -222 115z m76 -179 c25 -32 26 -52 5
-82 -25 -36 -60 -45 -101 -26 -40 20 -57 53 -43 88 12 32 36 45 82 46 28 0 41
-6 57 -26z"/>
<path d="M1640 4475 c0 -9 64 -95 70 -95 9 0 44 39 39 44 -10 9 -109 56 -109
51z"/>
<path d="M4611 4388 l-53 -31 23 -18 c13 -10 27 -19 30 -19 3 0 20 23 37 50
17 28 28 50 24 49 -4 0 -31 -14 -61 -31z"/>
<path d="M5120 3675 c-14 -17 -5 -51 17 -59 33 -13 57 36 31 62 -16 16 -33 15
-48 -3z"/>
<path d="M1510 3681 c0 -7 -4 -9 -10 -6 -5 3 -10 -1 -10 -9 0 -18 25 -22 36
-5 3 6 1 16 -5 22 -8 8 -11 8 -11 -2z"/>
<path d="M1124 2839 c-7 -12 15 -31 31 -26 6 2 11 11 13 20 4 19 -32 24 -44 6z"/>
<path d="M1467 2803 c-11 -10 13 -32 29 -26 20 8 17 33 -4 33 -10 0 -22 -3
-25 -7z"/>
<path d="M4830 2840 c0 -5 7 -10 15 -10 8 0 15 5 15 10 0 6 -7 10 -15 10 -8 0
-15 -4 -15 -10z"/>
<path d="M4960 2845 c-11 -13 -9 -15 15 -15 16 0 25 5 23 12 -7 19 -24 20 -38
3z"/>
<path d="M5114 2839 c-19 -22 -19 -22 6 -14 32 10 36 13 24 25 -7 7 -17 3 -30
-11z"/>
<path d="M5120 2790 c-12 -8 -11 -10 8 -10 12 0 22 5 22 10 0 13 -11 13 -30 0z"/>
<path d="M1590 2383 c-25 -14 -47 -27 -49 -29 -9 -8 42 -63 65 -68 28 -7 71
14 81 40 6 17 -27 84 -42 84 -5 0 -30 -12 -55 -27z"/>
<path d="M1896 2030 c-21 -16 -41 -32 -44 -35 -3 -3 7 -19 23 -35 20 -21 38
-30 60 -30 60 0 72 44 27 97 l-27 32 -39 -29z"/>
<path d="M2211 1693 c-43 -21 -85 -85 -85 -129 0 -63 77 -113 146 -93 58 16
108 80 108 139 0 42 -15 67 -50 85 -37 19 -77 19 -119 -2z"/>
<path d="M2722 1459 c-17 -62 -29 -116 -26 -120 2 -4 18 -10 34 -14 95 -21
179 71 151 166 -12 41 -39 61 -97 73 l-30 7 -32 -112z"/>
</g>
</svg>
